# xmcd
#
# Track frame offsets: 
#        150
#        11340
#        22905
#        36235
#        48005
#        59777
#        71235
#        84787
#        97922
#        109012
#        121437
#        135130
#        146905
#        160127
#        170662
#        184145
#        195757
#        208235
#        218200
#        228967
#        239295
#        248467
#        258147
#        268850
#        279017
#        289647
#        299535
#        311640
#        323940
#        335452
#
# Disc length: 4640 seconds
#
# Revision: 1
# Processed by: cddbd v1.5.2PL0 Copyright (c) Steve Scherf et al.
# Submitted via: ExactAudioCopy v1.1
#
DISCID=aa121e1e
DTITLE=Ernest Tubb - E. Tubb_Thirty Days (Gonna Shake... )
DYEAR=2007
DGENRE=Country
TTITLE0=Thirty Days
TTITLE1=I'm A Long Gone Daddy
TTITLE2=Mean Mama Blues
TTITLE3=Jimmie Rodgers' Last Blue Yodel
TTITLE4=Walking The Floor Over You
TTITLE5=I Ain't Goin' Honky Tonkin' Anymore
TTITLE6=Filipino Baby
TTITLE7=So Round, So Firm, So Fully Packed
TTITLE8=My Tennessee Baby
TTITLE9=You Nearly Lose Your Mind
TTITLE10=Tomorrow Never Comes
TTITLE11=Tennessee Border #2 (& Red Foley)
TTITLE12=Drivin' Nails In My Coffin
TTITLE13=So Doggone Lonesome
TTITLE14=Let's Say Goodbye Like We Said Hello
TTITLE15=Don't Forbid Me
TTITLE16=Don't Brush Them On Me
TTITLE17=The Same Thing As Me
TTITLE18=Counterfeit Kisses
TTITLE19=Two Glasses, Joe
TTITLE20=Kansas City Blues
TTITLE21=Have You Seen My Boogie Woogie Baby
TTITLE22=This Troubled Mind O'Mine
TTITLE23=My Hillbilly Baby
TTITLE24=I'll Get Along Somehow
TTITLE25=Do It Now
TTITLE26=Mister Blues
TTITLE27=White Silver Sands
TTITLE28=Crazy Arms
TTITLE29=Tennessee Saturday Night
EXTD=YEAR: 2007
EXTT0=
EXTT1=
EXTT2=
EXTT3=
EXTT4=
EXTT5=
EXTT6=
EXTT7=
EXTT8=
EXTT9=
EXTT10=
EXTT11=
EXTT12=
EXTT13=
EXTT14=
EXTT15=
EXTT16=
EXTT17=
EXTT18=
EXTT19=
EXTT20=
EXTT21=
EXTT22=
EXTT23=
EXTT24=
EXTT25=
EXTT26=
EXTT27=
EXTT28=
EXTT29=
PLAYORDER=
